<svg xmlns="http://www.w3.org/2000/svg" xmlns:svg="http://www.w3.org/2000/svg" id="svg2" width="53.333" height="53.333" version="1.1" viewBox="0 0 50 50"><metadata id="metadata7"/><g id="layer1" transform="translate(-240.17857,-248.6122)"><g id="g4170" transform="matrix(1.237589,0,0,1.237589,-195.27257,-62.678437)"><g id="text4151" fill="#000" fill-opacity="1" stroke="none" stroke-linecap="butt" stroke-linejoin="miter" stroke-opacity="1" stroke-width="1" font-family="Sans" font-size="40" font-style="normal" font-weight="normal" letter-spacing="0" word-spacing="0" style="line-height:125%"><path id="path4166" fill="#ff4e4e" fill-opacity="1" d="m 267.18945,255.19531 c -4.41577,0 -8.17239,1.55302 -10.89257,4.58985 -2.71003,3.02715 -4.03125,7.09658 -4.03126,11.95507 0,4.85851 1.32124,8.92792 4.03126,11.95508 a 1.40742,1.40742 0 0 0 0.002,0.002 c 2.721,3.02332 6.47633,4.56836 10.89062,4.56835 4.40227,0 8.1459,-1.54585 10.85352,-4.57031 a 1.40742,1.40742 0 0 0 0.002,-0.004 c 2.70722,-3.03843 4.0293,-7.10498 4.0293,-11.95118 0,-4.85677 -1.32123,-8.92435 -4.0293,-11.95117 -2.7068,-3.03795 -6.45171,-4.59375 -10.85547,-4.59375 z m 0,6.01953 c 2.51491,0 4.26144,0.83301 5.6875,2.66016 a 1.40742,1.40742 0 0 0 0.004,0.004 c 1.4365,1.82625 2.2168,4.39026 2.2168,7.86132 0,3.4573 -0.77944,6.01445 -2.2168,7.8418 a 1.40742,1.40742 0 0 0 -0.004,0.004 c -1.42606,1.82714 -3.17259,2.66015 -5.6875,2.66015 -2.51489,0 -4.27977,-0.83734 -5.73242,-2.66992 -1.43509,-1.82704 -2.21484,-4.3815 -2.21484,-7.83594 0,-3.46819 0.7806,-6.0295 2.21484,-7.85546 1.45265,-1.83258 3.21753,-2.66993 5.73242,-2.66993 z"/><path id="path4162" d="m 267.18945,256.60352 c -4.10156,0 -7.38281,1.37369 -9.84375,4.12109 -2.44791,2.73437 -3.67187,6.40625 -3.67187,11.01562 0,4.60938 1.22396,8.28125 3.67187,11.01563 2.46094,2.73437 5.74219,4.10156 9.84375,4.10156 4.08854,0 7.35677,-1.36719 9.80469,-4.10156 2.44791,-2.7474 3.67188,-6.41927 3.67188,-11.01563 0,-4.60937 -1.22397,-8.28125 -3.67188,-11.01562 -2.44792,-2.7474 -5.71615,-4.12109 -9.80469,-4.12109 z m 0,3.20312 c 2.86459,0 5.13021,1.06771 6.79688,3.20313 1.67968,2.13542 2.51953,5.04557 2.51953,8.73046 0,3.67188 -0.83985,6.57552 -2.51953,8.71094 -1.66667,2.13542 -3.93229,3.20313 -6.79688,3.20313 -2.86458,0 -5.14322,-1.06771 -6.83593,-3.20313 -1.67969,-2.13542 -2.51954,-5.03906 -2.51954,-8.71094 0,-3.68489 0.83985,-6.59504 2.51954,-8.73046 1.69271,-2.13542 3.97135,-3.20313 6.83593,-3.20313 z"/></g></g><g id="g4207" transform="matrix(1.3875621,0,0,1.3875621,-102.77149,-106.04052)"><g id="g4201" fill="#a146ff" fill-opacity="1" stroke="none" stroke-linecap="butt" stroke-linejoin="miter" stroke-opacity="1" stroke-width="1" font-family="Sans" font-size="40" font-style="normal" font-weight="normal" letter-spacing="0" word-spacing="0" style="line-height:125%"><path id="path4205" fill="#a146ff" fill-opacity="1" d="m 262.95117,256.34375 a 2.6884939,2.6884939 0 0 0 -2.51172,1.72852 l -11.13281,29.16015 a 2.6884939,2.6884939 0 0 0 2.51172,3.64649 l 4.16016,0 a 2.6884939,2.6884939 0 0 0 2.5332,-1.78711 l 2.02148,-5.69336 9.34766,0 2.02148,5.69336 a 2.6884939,2.6884939 0 0 0 2.53321,1.78711 l 4.10156,0 a 2.6884939,2.6884939 0 0 0 2.51172,-3.64453 l -11.11328,-29.16016 a 2.6884939,2.6884939 0 0 0 -2.51172,-1.73047 l -4.47266,0 z m 2.23047,14.33008 1.50586,4.06836 -3.00586,0 1.5,-4.06836 z"/></g><g id="text4194" fill="#000" fill-opacity="1" stroke="none" stroke-linecap="butt" stroke-linejoin="miter" stroke-opacity="1" stroke-width="1" font-family="Sans" font-size="40" font-style="normal" font-weight="normal" letter-spacing="0" word-spacing="0" style="line-height:125%"><path id="path4199" d="m 265.17857,262.91882 -5.35156,14.51172 10.72266,0 -5.3711,-14.51172 z m -2.22656,-3.88672 4.47266,0 11.11328,29.16016 -4.10156,0 -2.65625,-7.48047 -13.14454,0 -2.65625,7.48047 -4.16015,0 11.13281,-29.16016 z"/></g></g></g></svg>