<svg xmlns="http://www.w3.org/2000/svg" xmlns:svg="http://www.w3.org/2000/svg" id="svg8" width="600mm" height="600mm" version="1.1" viewBox="0 0 600 600"><metadata id="metadata5"/><g id="layer1" transform="translate(0,303)"><g id="g4610" opacity="1" transform="matrix(3.4905176,0,0,3.4905176,-62.816445,-509.312)"><circle id="path21" cx="103.943" cy="145.054" r="85.423" fill="#d3d562" fill-opacity="1" stroke-width=".265"/><circle id="circle4534" cx="103.943" cy="145.054" r="60.854" fill="#d5bd62" fill-opacity="1" stroke-width=".188"/><circle id="circle4536" cx="103.943" cy="144.676" r="44.601" fill="#878c36" fill-opacity="1" stroke-width=".138"/><circle id="path4544" cx="104.421" cy="79.204" r="16.631" fill="#f0f1db" fill-opacity="1" stroke-width=".265"/><text id="text4548" x="93.865" y="89.491" fill="#4b4b23" fill-opacity="1" stroke="none" stroke-width=".265" font-family="sans-serif" font-size="10.583" font-style="normal" font-weight="normal" letter-spacing="0" word-spacing="0" xml:space="preserve" style="line-height:1.25"><tspan id="tspan4546" x="93.865" y="89.491" fill="#4b4b23" fill-opacity="1" stroke-width=".265" font-size="28.222">N</tspan></text><circle id="circle4555" cx="104.421" cy="211.496" r="16.631" fill="#f0f1db" fill-opacity="1" stroke-width=".265"/><text id="text4559" x="95.319" y="221.769" fill="#4b4b23" fill-opacity="1" stroke="none" stroke-width=".265" font-family="sans-serif" font-size="10.583" font-style="normal" font-weight="normal" letter-spacing="0" word-spacing="0" xml:space="preserve" style="line-height:1.25"><tspan id="tspan4557" x="95.319" y="221.769" fill="#4b4b23" fill-opacity="1" stroke-width=".265" font-size="28.222">S</tspan></text><circle id="circle4566" cx="37.897" cy="144.676" r="16.631" fill="#f0f1db" fill-opacity="1" stroke-width=".265"/><text id="text4570" x="23.938" y="154.963" fill="#4b4b23" fill-opacity="1" stroke="none" stroke-width=".265" font-family="sans-serif" font-size="10.583" font-style="normal" font-weight="normal" letter-spacing="0" word-spacing="0" xml:space="preserve" style="line-height:1.25"><tspan id="tspan4568" x="23.938" y="154.963" fill="#4b4b23" fill-opacity="1" stroke-width=".265" font-size="28.222">W</tspan></text><circle id="circle4580" cx="170.567" cy="144.676" r="16.631" fill="#f0f1db" fill-opacity="1" stroke-width=".265"/><text id="text4584" x="161.168" y="154.963" fill="#4b4b23" fill-opacity="1" stroke="none" stroke-width=".265" font-family="sans-serif" font-size="10.583" font-style="normal" font-weight="normal" letter-spacing="0" word-spacing="0" xml:space="preserve" style="line-height:1.25"><tspan id="tspan4582" x="161.168" y="154.963" fill="#4b4b23" fill-opacity="1" stroke-width=".265" font-size="28.222">E</tspan></text></g><g id="g4593" opacity="1" transform="matrix(0,3.4905176,-3.4905176,0,804.99273,-365.81645)"><path id="ellipse4550" fill="#8d3737" fill-opacity="1" stroke-width=".235" d="m 112.82589,144.6756 c -17.76488,0 0,0 -17.76488,0 0,0 3.976804,-45.585354 8.88244,-45.585356 4.90564,2e-6 8.88244,45.585356 8.88244,45.585356 z"/><path id="path4553" fill="#f0f1db" fill-opacity="1" stroke-width=".235" d="m 112.82589,144.6756 c -17.76488,0 0,0 -17.76488,0 0,0 3.976804,45.58536 8.88244,45.58536 4.90564,0 8.88244,-45.58536 8.88244,-45.58536 z"/><circle id="circle4540" cx="103.943" cy="144.676" r="11.717" fill="#d5bd62" fill-opacity="1" stroke-width=".036"/><circle id="circle4542" cx="104.421" cy="144.676" r="6.036" fill="#b05f44" fill-opacity="1" stroke-width=".019"/></g></g></svg>